<svg width="92" height="92" viewBox="0 0 92 92" fill="none" xmlns="http://www.w3.org/2000/svg">
<line x1="40" y1="88" x2="92" y2="88" stroke="#ADFF00" stroke-width="4"/>
<line x1="48" y1="88" x2="84" y2="88" stroke="#FF4F28" stroke-width="2"/>
<path d="M62.358 26H61.666L61.4221 26.6476L41.9741 78.2926L41.4648 79.645H42.91H50.082H50.7834L51.0222 78.9854L56.3844 64.176H75.2335L80.3917 78.9741L80.6255 79.645H81.336H89H90.4268L89.94 78.3038L71.195 26.6588L70.9558 26H70.255H62.358ZM59.1707 56.48L65.9898 37.6508L72.5515 56.48H59.1707Z" fill="white" stroke="white" stroke-width="2"/>
<path d="M54.6286 63.9285L55.5347 64.2909L55.9191 63.3939L58.9191 56.3939L59.3078 55.4869L58.4061 55.0862C49.9569 51.331 45.1093 47.5933 40.4095 42.9884C45.5947 37.5591 48.4768 31.7365 50.0685 27.2065C50.8997 24.8405 51.3806 22.8229 51.6541 21.3907C51.7603 20.8348 51.8354 20.3666 51.8876 20H59H60V19V11V10H59H37V4V3H36H27H26V4V10H3H2V11V19V20H3H41.936C41.9155 20.2083 41.8884 20.4459 41.8528 20.7098C41.7034 21.8149 41.4034 23.3776 40.8013 25.1838C39.6536 28.6268 37.413 32.9439 33.029 36.6794C32.9292 36.5854 32.8186 36.4796 32.6981 36.3621C32.0937 35.7728 31.2414 34.8905 30.2649 33.7309C28.3105 31.41 25.8672 27.9889 23.9138 23.5939L23.6499 23H23H15H13.8195L14.0136 24.1644C14.2936 25.8446 15.1753 27.7877 16.2972 29.7305C17.4304 31.6929 18.8579 33.7376 20.3065 35.6375C22.6391 38.6965 25.0681 41.4342 26.4888 42.9066C19.5191 48.2964 16.9616 49.8819 11.6056 53.2023C10.6607 53.788 9.62871 54.4278 8.47 55.152L7.59669 55.6978L8.16795 56.5547L12.1679 62.5547L12.6857 63.3313L13.4961 62.8682L13 62C13.4961 62.8682 13.4962 62.8682 13.4964 62.8681L13.4969 62.8678L13.499 62.8666L13.5069 62.8621L13.5377 62.8445L13.6572 62.7758C13.7621 62.7155 13.9163 62.6266 14.1145 62.5118C14.5109 62.2822 15.0833 61.949 15.7887 61.5336C17.1993 60.7029 19.143 59.5429 21.2755 58.2258C25.2354 55.78 29.8989 52.7602 32.9926 50.2954C38.8016 55.1313 44.8276 60.0081 54.6286 63.9285Z" fill="white" stroke="white" stroke-width="2"/>
</svg>
