<svg width="40" height="40" viewBox="0 0 40 40" fill="none" xmlns="http://www.w3.org/2000/svg">
<mask id="path-1-outside-1_36_6" maskUnits="userSpaceOnUse" x="3" y="12" width="34" height="13" fill="black">
<rect fill="white" x="3" y="12" width="34" height="13"/>
<path d="M5.36967 23H3.68217L8.20348 14.2727H10.1552L11.783 23H10.0955L8.92365 16.0625H8.85547L5.36967 23ZM5.99183 19.5781H10.5941L10.381 20.848H5.77876L5.99183 19.5781ZM18.3146 22.706L17.5178 21.7727L20.4411 19.2713H14.1896L14.407 18.0014H20.9183L18.6683 15.2997L19.6143 14.5028L23.0661 18.6364L18.3146 22.706ZM32.1904 14L33.3064 13.376C34.0384 14.168 34.9624 15.26 35.3824 15.992L34.1824 16.724C33.7984 15.992 32.9224 14.84 32.1904 14ZM29.4304 16.232L30.8104 16.592C30.3784 17.72 29.6584 18.896 28.9744 19.628C28.7104 19.4 28.1464 19.004 27.8104 18.824C28.4824 18.188 29.0824 17.18 29.4304 16.232ZM29.8384 17.276H35.1184V18.512H29.3464L29.8384 17.276ZM27.9304 19.64H35.5744V20.876H27.9304V19.64ZM31.0504 17.804H32.4544V19.472C32.4544 21.164 31.9024 23.096 28.3024 24.08C28.1824 23.756 27.8464 23.168 27.6184 22.904C30.6784 22.1 31.0504 20.636 31.0504 19.436V17.804ZM32.3824 20.324C32.8984 21.656 34.0024 22.532 35.8024 22.844C35.5024 23.132 35.1184 23.696 34.9264 24.08C32.9104 23.576 31.8064 22.4 31.1704 20.552L32.3824 20.324ZM28.7344 16.532C28.6624 16.244 28.4344 15.584 28.2784 15.2C28.5064 15.152 28.7224 14.984 28.9744 14.732C29.2264 14.504 30.0064 13.64 30.4984 12.74L31.9984 13.172C31.2904 14.18 30.3424 15.212 29.5384 15.836V15.86C29.5384 15.86 28.7344 16.28 28.7344 16.532ZM28.7344 16.532L28.7104 15.476L29.4544 15.032L34.0504 14.792C34.1104 15.176 34.2184 15.704 34.3024 15.992C29.8264 16.316 29.1904 16.364 28.7344 16.532ZM25.1824 13.772L26.1184 12.896C26.7664 13.436 27.6304 14.204 28.0504 14.72L27.0664 15.716C26.6944 15.176 25.8304 14.36 25.1824 13.772ZM25.9504 23.888L25.6384 22.604L25.9264 22.16L28.0264 20.6C28.1344 20.996 28.3504 21.56 28.5064 21.848C26.5384 23.348 26.1544 23.624 25.9504 23.888ZM24.4744 16.532H26.7664V17.912H24.4744V16.532ZM25.9504 23.9C25.8304 23.624 25.4824 23.132 25.2544 22.94C25.5064 22.724 25.8544 22.28 25.8544 21.644V16.532H27.1624V22.4C27.1624 22.4 25.9504 23.408 25.9504 23.9Z"/>
</mask>
<path d="M5.36967 23H3.68217L8.20348 14.2727H10.1552L11.783 23H10.0955L8.92365 16.0625H8.85547L5.36967 23ZM5.99183 19.5781H10.5941L10.381 20.848H5.77876L5.99183 19.5781ZM18.3146 22.706L17.5178 21.7727L20.4411 19.2713H14.1896L14.407 18.0014H20.9183L18.6683 15.2997L19.6143 14.5028L23.0661 18.6364L18.3146 22.706ZM32.1904 14L33.3064 13.376C34.0384 14.168 34.9624 15.26 35.3824 15.992L34.1824 16.724C33.7984 15.992 32.9224 14.84 32.1904 14ZM29.4304 16.232L30.8104 16.592C30.3784 17.72 29.6584 18.896 28.9744 19.628C28.7104 19.4 28.1464 19.004 27.8104 18.824C28.4824 18.188 29.0824 17.18 29.4304 16.232ZM29.8384 17.276H35.1184V18.512H29.3464L29.8384 17.276ZM27.9304 19.64H35.5744V20.876H27.9304V19.64ZM31.0504 17.804H32.4544V19.472C32.4544 21.164 31.9024 23.096 28.3024 24.08C28.1824 23.756 27.8464 23.168 27.6184 22.904C30.6784 22.1 31.0504 20.636 31.0504 19.436V17.804ZM32.3824 20.324C32.8984 21.656 34.0024 22.532 35.8024 22.844C35.5024 23.132 35.1184 23.696 34.9264 24.08C32.9104 23.576 31.8064 22.4 31.1704 20.552L32.3824 20.324ZM28.7344 16.532C28.6624 16.244 28.4344 15.584 28.2784 15.2C28.5064 15.152 28.7224 14.984 28.9744 14.732C29.2264 14.504 30.0064 13.64 30.4984 12.74L31.9984 13.172C31.2904 14.18 30.3424 15.212 29.5384 15.836V15.86C29.5384 15.86 28.7344 16.28 28.7344 16.532ZM28.7344 16.532L28.7104 15.476L29.4544 15.032L34.0504 14.792C34.1104 15.176 34.2184 15.704 34.3024 15.992C29.8264 16.316 29.1904 16.364 28.7344 16.532ZM25.1824 13.772L26.1184 12.896C26.7664 13.436 27.6304 14.204 28.0504 14.72L27.0664 15.716C26.6944 15.176 25.8304 14.36 25.1824 13.772ZM25.9504 23.888L25.6384 22.604L25.9264 22.16L28.0264 20.6C28.1344 20.996 28.3504 21.56 28.5064 21.848C26.5384 23.348 26.1544 23.624 25.9504 23.888ZM24.4744 16.532H26.7664V17.912H24.4744V16.532ZM25.9504 23.9C25.8304 23.624 25.4824 23.132 25.2544 22.94C25.5064 22.724 25.8544 22.28 25.8544 21.644V16.532H27.1624V22.4C27.1624 22.4 25.9504 23.408 25.9504 23.9Z" fill="#282828"/>
<path d="M5.36967 23V23.1H5.43134L5.45903 23.0449L5.36967 23ZM3.68217 23L3.59338 22.954L3.51774 23.1H3.68217V23ZM8.20348 14.2727V14.1727H8.14266L8.11469 14.2267L8.20348 14.2727ZM10.1552 14.2727L10.2535 14.2544L10.2383 14.1727H10.1552V14.2727ZM11.783 23V23.1H11.9034L11.8813 22.9817L11.783 23ZM10.0955 23L9.99692 23.0167L10.011 23.1H10.0955V23ZM8.92365 16.0625L9.02225 16.0458L9.00818 15.9625H8.92365V16.0625ZM8.85547 16.0625V15.9625H8.7938L8.76611 16.0176L8.85547 16.0625ZM5.99183 19.5781V19.4781H5.90721L5.89321 19.5616L5.99183 19.5781ZM10.5941 19.5781L10.6927 19.5947L10.7123 19.4781H10.5941V19.5781ZM10.381 20.848V20.948H10.4657L10.4797 20.8646L10.381 20.848ZM5.77876 20.848L5.68014 20.8315L5.66059 20.948H5.77876V20.848ZM5.36967 22.9H3.68217V23.1H5.36967V22.9ZM3.77097 23.046L8.29227 14.3187L8.11469 14.2267L3.59338 22.954L3.77097 23.046ZM8.20348 14.3727H10.1552V14.1727H8.20348V14.3727ZM10.0569 14.2911L11.6847 23.0183L11.8813 22.9817L10.2535 14.2544L10.0569 14.2911ZM11.783 22.9H10.0955V23.1H11.783V22.9ZM10.1941 22.9833L9.02225 16.0458L8.82505 16.0792L9.99692 23.0167L10.1941 22.9833ZM8.92365 15.9625H8.85547V16.1625H8.92365V15.9625ZM8.76611 16.0176L5.28032 22.9551L5.45903 23.0449L8.94482 16.1074L8.76611 16.0176ZM5.99183 19.6781H10.5941V19.4781H5.99183V19.6781ZM10.4955 19.5616L10.2824 20.8315L10.4797 20.8646L10.6927 19.5947L10.4955 19.5616ZM10.381 20.748H5.77876V20.948H10.381V20.748ZM5.87739 20.8646L6.09045 19.5947L5.89321 19.5616L5.68014 20.8315L5.87739 20.8646ZM18.3146 22.706L18.2386 22.7709L18.3036 22.8471L18.3797 22.7819L18.3146 22.706ZM17.5178 21.7727L17.4527 21.6967L17.3768 21.7617L17.4417 21.8377L17.5178 21.7727ZM20.4411 19.2713L20.5061 19.3473L20.7117 19.1713H20.4411V19.2713ZM14.1896 19.2713L14.0911 19.2544L14.0711 19.3713H14.1896V19.2713ZM14.407 18.0014V17.9014H14.3226L14.3084 17.9846L14.407 18.0014ZM20.9183 18.0014V18.1014H21.1317L20.9952 17.9374L20.9183 18.0014ZM18.6683 15.2997L18.6039 15.2232L18.5278 15.2873L18.5915 15.3637L18.6683 15.2997ZM19.6143 14.5028L19.6911 14.4387L19.6267 14.3617L19.5499 14.4264L19.6143 14.5028ZM23.0661 18.6364L23.1311 18.7123L23.2061 18.6481L23.1428 18.5723L23.0661 18.6364ZM18.3907 22.641L17.5938 21.7078L17.4417 21.8377L18.2386 22.7709L18.3907 22.641ZM17.5828 21.8487L20.5061 19.3473L20.376 19.1953L17.4527 21.6967L17.5828 21.8487ZM20.4411 19.1713H14.1896V19.3713H20.4411V19.1713ZM14.2882 19.2882L14.5055 18.0183L14.3084 17.9846L14.0911 19.2544L14.2882 19.2882ZM14.407 18.1014H20.9183V17.9014H14.407V18.1014ZM20.9952 17.9374L18.7452 15.2357L18.5915 15.3637L20.8415 18.0654L20.9952 17.9374ZM18.7327 15.3762L19.6788 14.5793L19.5499 14.4264L18.6039 15.2232L18.7327 15.3762ZM19.5376 14.5669L22.9893 18.7005L23.1428 18.5723L19.6911 14.4387L19.5376 14.5669ZM23.001 18.5604L18.2496 22.63L18.3797 22.7819L23.1311 18.7123L23.001 18.5604ZM32.1904 14L32.1416 13.9127L32.0341 13.9728L32.115 14.0657L32.1904 14ZM33.3064 13.376L33.3798 13.3081L33.3264 13.2503L33.2576 13.2887L33.3064 13.376ZM35.3824 15.992L35.4345 16.0774L35.5176 16.0267L35.4691 15.9422L35.3824 15.992ZM34.1824 16.724L34.0939 16.7705L34.1434 16.8649L34.2345 16.8094L34.1824 16.724ZM29.4304 16.232L29.4556 16.1352L29.3678 16.1123L29.3365 16.1975L29.4304 16.232ZM30.8104 16.592L30.9038 16.6278L30.9437 16.5234L30.8356 16.4952L30.8104 16.592ZM28.9744 19.628L28.909 19.7037L28.9818 19.7665L29.0475 19.6963L28.9744 19.628ZM27.8104 18.824L27.7417 18.7514L27.641 18.8467L27.7632 18.9121L27.8104 18.824ZM29.8384 17.276V17.176H29.7706L29.7455 17.239L29.8384 17.276ZM35.1184 17.276H35.2184V17.176H35.1184V17.276ZM35.1184 18.512V18.612H35.2184V18.512H35.1184ZM29.3464 18.512L29.2535 18.475L29.199 18.612H29.3464V18.512ZM27.9304 19.64V19.54H27.8304V19.64H27.9304ZM35.5744 19.64H35.6744V19.54H35.5744V19.64ZM35.5744 20.876V20.976H35.6744V20.876H35.5744ZM27.9304 20.876H27.8304V20.976H27.9304V20.876ZM31.0504 17.804V17.704H30.9504V17.804H31.0504ZM32.4544 17.804H32.5544V17.704H32.4544V17.804ZM28.3024 24.08L28.2086 24.1147L28.2404 24.2006L28.3288 24.1765L28.3024 24.08ZM27.6184 22.904L27.593 22.8073L27.4379 22.848L27.5427 22.9694L27.6184 22.904ZM32.3824 20.324L32.4757 20.2879L32.4456 20.2104L32.3639 20.2257L32.3824 20.324ZM35.8024 22.844L35.8717 22.9161L36.0143 22.7792L35.8195 22.7455L35.8024 22.844ZM34.9264 24.08L34.9022 24.177L34.98 24.1965L35.0158 24.1247L34.9264 24.08ZM31.1704 20.552L31.1519 20.4537L31.0382 20.4751L31.0758 20.5845L31.1704 20.552ZM28.7344 16.532L28.6374 16.5563L28.8344 16.532H28.7344ZM28.2784 15.2L28.2578 15.1021L28.1407 15.1268L28.1858 15.2376L28.2784 15.2ZM28.9744 14.732L28.9072 14.6578L28.9037 14.6613L28.9744 14.732ZM30.4984 12.74L30.5261 12.6439L30.4491 12.6217L30.4107 12.692L30.4984 12.74ZM31.9984 13.172L32.0802 13.2295L32.1608 13.1147L32.0261 13.0759L31.9984 13.172ZM29.5384 15.836L29.4771 15.757L29.4384 15.787V15.836H29.5384ZM29.5384 15.86L29.5847 15.9486L29.6384 15.9206V15.86H29.5384ZM28.7344 16.532L28.6344 16.5343L28.6376 16.6742L28.769 16.6258L28.7344 16.532ZM28.7104 15.476L28.6592 15.3901L28.6091 15.42L28.6104 15.4783L28.7104 15.476ZM29.4544 15.032L29.4492 14.9321L29.4244 14.9334L29.4032 14.9461L29.4544 15.032ZM34.0504 14.792L34.1492 14.7766L34.1353 14.6874L34.0452 14.6921L34.0504 14.792ZM34.3024 15.992L34.3096 16.0917L34.4331 16.0828L34.3984 15.964L34.3024 15.992ZM25.1824 13.772L25.1141 13.699L25.0348 13.7731L25.1152 13.8461L25.1824 13.772ZM26.1184 12.896L26.1824 12.8192L26.1146 12.7626L26.0501 12.823L26.1184 12.896ZM28.0504 14.72L28.1215 14.7903L28.1846 14.7265L28.128 14.6569L28.0504 14.72ZM27.0664 15.716L26.9841 15.7727L27.0526 15.8722L27.1375 15.7863L27.0664 15.716ZM25.9504 23.888L25.8532 23.9116L25.9023 24.1137L26.0295 23.9491L25.9504 23.888ZM25.6384 22.604L25.5545 22.5496L25.5311 22.5857L25.5412 22.6276L25.6384 22.604ZM25.9264 22.16L25.8668 22.0797L25.8523 22.0905L25.8425 22.1056L25.9264 22.16ZM28.0264 20.6L28.1229 20.5737L28.0843 20.4324L27.9668 20.5197L28.0264 20.6ZM28.5064 21.848L28.567 21.9275L28.6351 21.8756L28.5943 21.8004L28.5064 21.848ZM24.4744 16.532V16.432H24.3744V16.532H24.4744ZM26.7664 16.532H26.8664V16.432H26.7664V16.532ZM26.7664 17.912V18.012H26.8664V17.912H26.7664ZM24.4744 17.912H24.3744V18.012H24.4744V17.912ZM25.9504 23.9L25.8587 23.9399L26.0504 23.9H25.9504ZM25.2544 22.94L25.1893 22.8641L25.1 22.9407L25.19 23.0165L25.2544 22.94ZM25.8544 16.532V16.432H25.7544V16.532H25.8544ZM27.1624 16.532H27.2624V16.432H27.1624V16.532ZM27.1624 22.4L27.2263 22.4769L27.2624 22.4469V22.4H27.1624ZM32.2392 14.0873L33.3552 13.4633L33.2576 13.2887L32.1416 13.9127L32.2392 14.0873ZM33.233 13.4439C33.965 14.2359 34.8819 15.3206 35.2957 16.0418L35.4691 15.9422C35.0429 15.1994 34.1118 14.1001 33.3798 13.3081L33.233 13.4439ZM35.3303 15.9066L34.1303 16.6386L34.2345 16.8094L35.4345 16.0774L35.3303 15.9066ZM34.271 16.6775C33.8814 15.9349 32.9991 14.7758 32.2658 13.9343L32.115 14.0657C32.8457 14.9042 33.7154 16.0491 34.0939 16.7705L34.271 16.6775ZM29.4052 16.3288L30.7852 16.6888L30.8356 16.4952L29.4556 16.1352L29.4052 16.3288ZM30.717 16.5562C30.289 17.6739 29.5754 18.8384 28.9013 19.5597L29.0475 19.6963C29.7415 18.9536 30.4678 17.7661 30.9038 16.6278L30.717 16.5562ZM29.0398 19.5523C28.7707 19.3199 28.2007 18.9196 27.8576 18.7359L27.7632 18.9121C28.0921 19.0884 28.6501 19.4801 28.909 19.7037L29.0398 19.5523ZM27.8791 18.8966C28.5651 18.2474 29.1725 17.2249 29.5243 16.2665L29.3365 16.1975C28.9924 17.1351 28.3997 18.1286 27.7417 18.7514L27.8791 18.8966ZM29.8384 17.376H35.1184V17.176H29.8384V17.376ZM35.0184 17.276V18.512H35.2184V17.276H35.0184ZM35.1184 18.412H29.3464V18.612H35.1184V18.412ZM29.4393 18.549L29.9313 17.313L29.7455 17.239L29.2535 18.475L29.4393 18.549ZM27.9304 19.74H35.5744V19.54H27.9304V19.74ZM35.4744 19.64V20.876H35.6744V19.64H35.4744ZM35.5744 20.776H27.9304V20.976H35.5744V20.776ZM28.0304 20.876V19.64H27.8304V20.876H28.0304ZM31.0504 17.904H32.4544V17.704H31.0504V17.904ZM32.3544 17.804V19.472H32.5544V17.804H32.3544ZM32.3544 19.472C32.3544 20.3076 32.218 21.1895 31.6472 21.9831C31.0766 22.7765 30.0616 23.4955 28.276 23.9835L28.3288 24.1765C30.1432 23.6805 31.2042 22.9415 31.8096 22.0999C32.4148 21.2585 32.5544 20.3284 32.5544 19.472H32.3544ZM28.3962 24.0453C28.3334 23.8757 28.2163 23.6422 28.0875 23.4194C27.9588 23.197 27.8142 22.9777 27.6941 22.8386L27.5427 22.9694C27.6506 23.0943 27.788 23.301 27.9143 23.5196C28.0406 23.7378 28.1514 23.9603 28.2086 24.1147L28.3962 24.0453ZM27.6438 23.0007C29.1861 22.5955 30.0673 22.0198 30.5611 21.3796C31.0558 20.7382 31.1504 20.0465 31.1504 19.436H30.9504C30.9504 20.0255 30.859 20.6658 30.4027 21.2574C29.9455 21.8502 29.1107 22.4085 27.593 22.8073L27.6438 23.0007ZM31.1504 19.436V17.804H30.9504V19.436H31.1504ZM32.2892 20.3601C32.8201 21.7307 33.9574 22.6257 35.7853 22.9425L35.8195 22.7455C34.0474 22.4383 32.9767 21.5813 32.4757 20.2879L32.2892 20.3601ZM35.7332 22.7719C35.4227 23.0699 35.0325 23.6442 34.837 24.0353L35.0158 24.1247C35.2043 23.7478 35.5821 23.1941 35.8717 22.9161L35.7332 22.7719ZM34.9507 23.983C33.9569 23.7345 33.1934 23.322 32.6005 22.7481C32.0071 22.1738 31.5793 21.4328 31.265 20.5195L31.0758 20.5845C31.3975 21.5192 31.8397 22.2902 32.4614 22.8919C33.0834 23.494 33.8799 23.9215 34.9022 24.177L34.9507 23.983ZM31.1889 20.6503L32.4009 20.4223L32.3639 20.2257L31.1519 20.4537L31.1889 20.6503ZM28.8314 16.5077C28.7578 16.2134 28.528 15.5486 28.3711 15.1624L28.1858 15.2376C28.3408 15.6194 28.567 16.2746 28.6374 16.5563L28.8314 16.5077ZM28.299 15.2979C28.5584 15.2433 28.7925 15.0553 29.0451 14.8027L28.9037 14.6613C28.6523 14.9127 28.4544 15.0607 28.2578 15.1021L28.299 15.2979ZM29.0415 14.8062C29.3007 14.5717 30.0881 13.6991 30.5862 12.788L30.4107 12.692C29.9247 13.5809 29.1522 14.4363 28.9073 14.6578L29.0415 14.8062ZM30.4707 12.8361L31.9707 13.2681L32.0261 13.0759L30.5261 12.6439L30.4707 12.8361ZM31.9166 13.1145C31.2129 14.1163 30.2715 15.1404 29.4771 15.757L29.5997 15.915C30.4133 15.2836 31.3679 14.2437 32.0802 13.2295L31.9166 13.1145ZM29.4384 15.836V15.86H29.6384V15.836H29.4384ZM29.5384 15.86C29.4921 15.7714 29.4921 15.7714 29.4921 15.7714C29.4921 15.7714 29.492 15.7714 29.492 15.7714C29.492 15.7714 29.4919 15.7715 29.4919 15.7715C29.4917 15.7716 29.4916 15.7716 29.4913 15.7718C29.4909 15.772 29.4903 15.7723 29.4894 15.7728C29.4878 15.7736 29.4854 15.7749 29.4824 15.7765C29.4762 15.7798 29.4673 15.7846 29.456 15.7907C29.4335 15.803 29.4014 15.8208 29.363 15.8429C29.2863 15.8869 29.1835 15.9487 29.0802 16.0188C28.9777 16.0884 28.8714 16.1685 28.7896 16.2497C28.7487 16.2903 28.7115 16.3336 28.6839 16.3782C28.6568 16.422 28.6344 16.4747 28.6344 16.532H28.8344C28.8344 16.5263 28.8371 16.5107 28.854 16.4833C28.8704 16.4568 28.896 16.4259 28.9305 16.3917C28.9995 16.3232 29.0941 16.2511 29.1926 16.1842C29.2903 16.1178 29.3886 16.0588 29.4626 16.0163C29.4995 15.995 29.5303 15.978 29.5517 15.9664C29.5624 15.9605 29.5708 15.956 29.5764 15.953C29.5792 15.9515 29.5814 15.9504 29.5828 15.9497C29.5835 15.9493 29.584 15.949 29.5843 15.9488C29.5845 15.9488 29.5846 15.9487 29.5846 15.9487C29.5847 15.9486 29.5847 15.9486 29.5847 15.9486C29.5847 15.9486 29.5847 15.9486 29.5847 15.9486C29.5847 15.9486 29.5847 15.9486 29.5384 15.86ZM28.8344 16.5297L28.8104 15.4737L28.6104 15.4783L28.6344 16.5343L28.8344 16.5297ZM28.7617 15.5619L29.5057 15.1179L29.4032 14.9461L28.6592 15.3901L28.7617 15.5619ZM29.4596 15.1319L34.0556 14.8919L34.0452 14.6921L29.4492 14.9321L29.4596 15.1319ZM33.9516 14.8074C34.0119 15.1936 34.1207 15.7263 34.2064 16.02L34.3984 15.964C34.3161 15.6817 34.2089 15.1584 34.1492 14.7766L33.9516 14.8074ZM34.2952 15.8923C32.0579 16.0542 30.7784 16.1473 30.0015 16.2209C29.2261 16.2944 28.9413 16.3492 28.6998 16.4382L28.769 16.6258C28.9835 16.5468 29.2447 16.4936 30.0203 16.4201C30.7944 16.3467 32.071 16.2538 34.3096 16.0917L34.2952 15.8923ZM25.2507 13.845L26.1867 12.969L26.0501 12.823L25.1141 13.699L25.2507 13.845ZM26.0544 12.9728C26.7029 13.5133 27.5598 14.2756 27.9729 14.7831L28.128 14.6569C27.701 14.1324 26.8299 13.3587 26.1824 12.8192L26.0544 12.9728ZM27.9793 14.6497L26.9953 15.6457L27.1375 15.7863L28.1215 14.7903L27.9793 14.6497ZM27.1488 15.6593C26.7688 15.1078 25.8951 14.2837 25.2496 13.6979L25.1152 13.8461C25.7657 14.4363 26.62 15.2442 26.9841 15.7727L27.1488 15.6593ZM26.0476 23.8644L25.7356 22.5804L25.5412 22.6276L25.8532 23.9116L26.0476 23.8644ZM25.7223 22.6584L26.0103 22.2144L25.8425 22.1056L25.5545 22.5496L25.7223 22.6584ZM25.986 22.2403L28.086 20.6803L27.9668 20.5197L25.8668 22.0797L25.986 22.2403ZM27.9299 20.6263C28.0394 21.0277 28.2579 21.5993 28.4185 21.8956L28.5943 21.8004C28.4429 21.5207 28.2294 20.9643 28.1229 20.5737L27.9299 20.6263ZM28.4458 21.7685C27.4626 22.5179 26.8734 22.9628 26.505 23.2529C26.138 23.542 25.9818 23.6839 25.8713 23.8269L26.0295 23.9491C26.1231 23.8281 26.2608 23.7 26.6288 23.4101C26.9955 23.1212 27.5822 22.6781 28.567 21.9275L28.4458 21.7685ZM24.4744 16.632H26.7664V16.432H24.4744V16.632ZM26.6664 16.532V17.912H26.8664V16.532H26.6664ZM26.7664 17.812H24.4744V18.012H26.7664V17.812ZM24.5744 17.912V16.532H24.3744V17.912H24.5744ZM26.0421 23.8601C25.978 23.7128 25.8565 23.5142 25.7241 23.3301C25.5921 23.1466 25.4424 22.9676 25.3188 22.8635L25.19 23.0165C25.2944 23.1044 25.4327 23.2674 25.5617 23.4469C25.6904 23.6258 25.8028 23.8112 25.8587 23.9399L26.0421 23.8601ZM25.3195 23.0159C25.5855 22.7879 25.9544 22.3184 25.9544 21.644H25.7544C25.7544 22.2416 25.4273 22.6601 25.1893 22.8641L25.3195 23.0159ZM25.9544 21.644V16.532H25.7544V21.644H25.9544ZM25.8544 16.632H27.1624V16.432H25.8544V16.632ZM27.0624 16.532V22.4H27.2624V16.532H27.0624ZM27.1624 22.4C27.0985 22.3231 27.0984 22.3231 27.0984 22.3231C27.0984 22.3232 27.0984 22.3232 27.0984 22.3232C27.0983 22.3232 27.0983 22.3233 27.0982 22.3234C27.098 22.3235 27.0978 22.3237 27.0974 22.324C27.0968 22.3245 27.0959 22.3253 27.0947 22.3263C27.0923 22.3283 27.0888 22.3312 27.0842 22.3351C27.0752 22.3427 27.0619 22.354 27.0451 22.3685C27.0115 22.3974 26.9636 22.4392 26.9062 22.4908C26.7914 22.594 26.6381 22.7371 26.4845 22.896C26.3313 23.0545 26.1756 23.231 26.0576 23.401C25.9431 23.566 25.8504 23.7436 25.8504 23.9H26.0504C26.0504 23.8104 26.1092 23.6775 26.2219 23.5151C26.3312 23.3577 26.4785 23.19 26.6283 23.035C26.7777 22.8804 26.9274 22.7407 27.0399 22.6395C27.0961 22.589 27.1429 22.5482 27.1756 22.5201C27.1919 22.506 27.2047 22.4951 27.2133 22.4878C27.2177 22.4842 27.221 22.4814 27.2232 22.4795C27.2243 22.4786 27.2251 22.4779 27.2256 22.4775C27.2259 22.4773 27.2261 22.4771 27.2262 22.477C27.2263 22.477 27.2263 22.4769 27.2263 22.4769C27.2263 22.4769 27.2263 22.4769 27.2264 22.4769C27.2264 22.4769 27.2263 22.4769 27.1624 22.4Z" fill="white" fill-opacity="0.25" mask="url(#path-1-outside-1_36_6)"/>
<line x1="4" y1="25.5" x2="37" y2="25.5" stroke="#282828"/>
</svg>
