<svg width="40" height="40" viewBox="0 0 40 40" fill="none" xmlns="http://www.w3.org/2000/svg">
<path d="M5.36967 23H3.68217L8.20348 14.2727H10.1552L11.783 23H10.0955L8.92365 16.0625H8.85547L5.36967 23ZM5.99183 19.5781H10.5941L10.381 20.848H5.77876L5.99183 19.5781ZM18.3146 22.706L17.5178 21.7727L20.4411 19.2713H14.1896L14.407 18.0014H20.9183L18.6683 15.2997L19.6143 14.5028L23.0661 18.6364L18.3146 22.706ZM32.1904 14L33.3064 13.376C34.0384 14.168 34.9624 15.26 35.3824 15.992L34.1824 16.724C33.7984 15.992 32.9224 14.84 32.1904 14ZM29.4304 16.232L30.8104 16.592C30.3784 17.72 29.6584 18.896 28.9744 19.628C28.7104 19.4 28.1464 19.004 27.8104 18.824C28.4824 18.188 29.0824 17.18 29.4304 16.232ZM29.8384 17.276H35.1184V18.512H29.3464L29.8384 17.276ZM27.9304 19.64H35.5744V20.876H27.9304V19.64ZM31.0504 17.804H32.4544V19.472C32.4544 21.164 31.9024 23.096 28.3024 24.08C28.1824 23.756 27.8464 23.168 27.6184 22.904C30.6784 22.1 31.0504 20.636 31.0504 19.436V17.804ZM32.3824 20.324C32.8984 21.656 34.0024 22.532 35.8024 22.844C35.5024 23.132 35.1184 23.696 34.9264 24.08C32.9104 23.576 31.8064 22.4 31.1704 20.552L32.3824 20.324ZM28.7344 16.532C28.6624 16.244 28.4344 15.584 28.2784 15.2C28.5064 15.152 28.7224 14.984 28.9744 14.732C29.2264 14.504 30.0064 13.64 30.4984 12.74L31.9984 13.172C31.2904 14.18 30.3424 15.212 29.5384 15.836V15.86C29.5384 15.86 28.7344 16.28 28.7344 16.532ZM28.7344 16.532L28.7104 15.476L29.4544 15.032L34.0504 14.792C34.1104 15.176 34.2184 15.704 34.3024 15.992C29.8264 16.316 29.1904 16.364 28.7344 16.532ZM25.1824 13.772L26.1184 12.896C26.7664 13.436 27.6304 14.204 28.0504 14.72L27.0664 15.716C26.6944 15.176 25.8304 14.36 25.1824 13.772ZM25.9504 23.888L25.6384 22.604L25.9264 22.16L28.0264 20.6C28.1344 20.996 28.3504 21.56 28.5064 21.848C26.5384 23.348 26.1544 23.624 25.9504 23.888ZM24.4744 16.532H26.7664V17.912H24.4744V16.532ZM25.9504 23.9C25.8304 23.624 25.4824 23.132 25.2544 22.94C25.5064 22.724 25.8544 22.28 25.8544 21.644V16.532H27.1624V22.4C27.1624 22.4 25.9504 23.408 25.9504 23.9Z" fill="white"/>
<line x1="4" y1="25.5" x2="37" y2="25.5" stroke="white"/>
</svg>
