<svg width="698" height="58" viewBox="0 0 698 58" fill="none" xmlns="http://www.w3.org/2000/svg">
<g clip-path="url(#clip0_196_38)">
<path d="M113.376 52V18.616H101.52V15.6H128.56V18.616H116.704V52H113.376ZM134.282 52V15.6H145.462C147.75 15.6 149.778 16.068 151.546 17.004C153.314 17.9053 154.683 19.1707 155.654 20.8C156.659 22.3947 157.162 24.2493 157.162 26.364C157.162 28.444 156.607 30.2987 155.498 31.928C154.423 33.5573 152.95 34.84 151.078 35.776C149.206 36.6773 147.109 37.128 144.786 37.128H137.61V52H134.282ZM154.978 52L146.138 36.92L148.894 35.308L158.618 52H154.978ZM137.61 34.06H146.346C147.733 34.06 148.981 33.7307 150.09 33.072C151.234 32.4133 152.153 31.512 152.846 30.368C153.539 29.1893 153.886 27.8547 153.886 26.364C153.886 24.076 153.089 22.2213 151.494 20.8C149.934 19.344 147.923 18.616 145.462 18.616H137.61V34.06ZM191.595 52L176.723 15.6H180.155L195.131 52H191.595ZM161.747 52L176.723 15.6H180.155L165.283 52H161.747ZM168.819 40.716V37.7H188.059V40.716H168.819ZM200.856 52V15.6H204.184L227.376 46.644V15.6H230.704V52H227.376L204.184 20.904V52H200.856ZM252.514 52.624C250.468 52.624 248.666 52.416 247.106 52C245.58 51.5493 244.263 50.9427 243.154 50.18C242.044 49.4173 241.126 48.568 240.398 47.632C239.704 46.696 239.167 45.708 238.786 44.668L241.906 43.472C242.495 45.1013 243.656 46.54 245.39 47.788C247.123 49.0013 249.238 49.608 251.734 49.608C254.923 49.608 257.402 49.0013 259.17 47.788C260.938 46.54 261.822 44.9107 261.822 42.9C261.822 40.9587 261.007 39.416 259.378 38.272C257.748 37.0933 255.634 36.1747 253.034 35.516L249.342 34.58C247.747 34.164 246.256 33.5747 244.87 32.812C243.518 32.0147 242.426 31.0093 241.594 29.796C240.762 28.5827 240.346 27.092 240.346 25.324C240.346 22.0653 241.386 19.5347 243.466 17.732C245.546 15.8947 248.579 14.976 252.566 14.976C254.958 14.976 257.02 15.392 258.754 16.224C260.487 17.0213 261.874 18.0267 262.914 19.24C263.988 20.4187 264.699 21.6147 265.046 22.828L261.978 24.024C261.215 22.1173 259.967 20.644 258.234 19.604C256.535 18.5293 254.472 17.992 252.046 17.992C249.48 17.992 247.435 18.616 245.91 19.864C244.419 21.112 243.674 22.7933 243.674 24.908C243.674 26.8147 244.263 28.2533 245.442 29.224C246.62 30.16 248.163 30.8707 250.07 31.356L253.762 32.24C257.436 33.1067 260.244 34.4933 262.186 36.4C264.162 38.272 265.15 40.2827 265.15 42.432C265.15 44.2693 264.682 45.968 263.746 47.528C262.81 49.0533 261.406 50.284 259.534 51.22C257.662 52.156 255.322 52.624 252.514 52.624ZM273.22 52V15.6H276.548V48.984H294.176V52H273.22ZM325.048 52L310.176 15.6H313.608L328.584 52H325.048ZM295.2 52L310.176 15.6H313.608L298.736 52H295.2ZM302.272 40.716V37.7H321.512V40.716H302.272ZM341.485 52V18.616H329.629V15.6H356.669V18.616H344.813V52H341.485ZM362.391 52V15.6H365.719V52H362.391ZM391.13 52.624C387.698 52.624 384.648 51.8267 381.978 50.232C379.344 48.6373 377.264 46.4187 375.738 43.576C374.248 40.7333 373.502 37.4747 373.502 33.8C373.502 30.0907 374.248 26.832 375.738 24.024C377.229 21.1813 379.274 18.9627 381.874 17.368C384.509 15.7733 387.542 14.976 390.974 14.976C394.406 14.976 397.44 15.7907 400.074 17.42C402.709 19.0147 404.754 21.2333 406.21 24.076C407.701 26.884 408.446 30.1253 408.446 33.8C408.446 37.4747 407.701 40.7333 406.21 43.576C404.754 46.4187 402.726 48.6373 400.126 50.232C397.526 51.8267 394.528 52.624 391.13 52.624ZM391.13 49.608C393.869 49.608 396.278 48.932 398.358 47.58C400.473 46.228 402.12 44.3733 403.298 42.016C404.512 39.624 405.118 36.8853 405.118 33.8C405.118 30.7147 404.512 27.9933 403.298 25.636C402.085 23.244 400.421 21.372 398.306 20.02C396.192 18.668 393.748 17.992 390.974 17.992C388.236 17.992 385.792 18.668 383.642 20.02C381.528 21.372 379.864 23.244 378.65 25.636C377.437 27.9933 376.83 30.7147 376.83 33.8C376.83 36.8853 377.437 39.624 378.65 42.016C379.864 44.3733 381.545 46.228 383.694 47.58C385.878 48.932 388.357 49.608 391.13 49.608ZM416.27 52V15.6H419.598L442.79 46.644V15.6H446.118V52H442.79L419.598 20.904V52H416.27ZM471.308 52.624C467.703 52.624 464.513 51.8267 461.74 50.232C459.001 48.6027 456.835 46.384 455.24 43.576C453.68 40.7333 452.9 37.4747 452.9 33.8C452.9 30.1253 453.68 26.884 455.24 24.076C456.835 21.2333 459.001 19.0147 461.74 17.42C464.513 15.7907 467.703 14.976 471.308 14.976C473.943 14.976 476.352 15.444 478.536 16.38C480.755 17.2813 482.661 18.564 484.256 20.228C485.885 21.892 487.133 23.816 488 26L480.148 28.652C479.628 27.4387 478.917 26.3813 478.016 25.48C477.149 24.5787 476.144 23.8853 475 23.4C473.891 22.9147 472.66 22.672 471.308 22.672C469.401 22.672 467.703 23.14 466.212 24.076C464.721 25.012 463.56 26.3293 462.728 28.028C461.896 29.692 461.48 31.616 461.48 33.8C461.48 35.984 461.896 37.9253 462.728 39.624C463.595 41.288 464.773 42.6053 466.264 43.576C467.789 44.512 469.523 44.98 471.464 44.98C472.885 44.98 474.151 44.72 475.26 44.2C476.369 43.68 477.323 42.952 478.12 42.016C478.952 41.08 479.663 40.0053 480.252 38.792L488.104 41.444C487.272 43.6627 486.041 45.6213 484.412 47.32C482.783 48.984 480.859 50.284 478.64 51.22C476.421 52.156 473.977 52.624 471.308 52.624ZM509.817 52.624C506.073 52.624 502.762 51.8267 499.885 50.232C497.008 48.6027 494.754 46.384 493.125 43.576C491.496 40.7333 490.681 37.492 490.681 33.852C490.681 30.1773 491.496 26.936 493.125 24.128C494.754 21.2853 496.99 19.0667 499.833 17.472C502.71 15.8427 506.004 15.028 509.713 15.028C513.422 15.028 516.698 15.8427 519.541 17.472C522.418 19.0667 524.672 21.2853 526.301 24.128C527.93 26.936 528.745 30.1773 528.745 33.852C528.745 37.492 527.93 40.7333 526.301 43.576C524.706 46.384 522.488 48.6027 519.645 50.232C516.802 51.8267 513.526 52.624 509.817 52.624ZM509.817 44.928C511.862 44.928 513.665 44.46 515.225 43.524C516.785 42.588 517.998 41.288 518.865 39.624C519.732 37.9253 520.165 36.0013 520.165 33.852C520.165 31.668 519.714 29.744 518.813 28.08C517.912 26.3813 516.681 25.064 515.121 24.128C513.561 23.1573 511.758 22.672 509.713 22.672C507.668 22.672 505.865 23.1573 504.305 24.128C502.745 25.064 501.514 26.3813 500.613 28.08C499.712 29.744 499.261 31.668 499.261 33.852C499.261 36.0013 499.712 37.9253 500.613 39.624C501.514 41.288 502.762 42.588 504.357 43.524C505.952 44.46 507.772 44.928 509.817 44.928ZM533.841 52V15.6H548.141C550.775 15.6 553.115 16.12 555.161 17.16C557.206 18.1653 558.801 19.5867 559.945 21.424C561.123 23.2267 561.713 25.3067 561.713 27.664C561.713 30.0213 561.123 32.1187 559.945 33.956C558.766 35.7933 557.137 37.232 555.057 38.272C553.011 39.2773 550.654 39.78 547.985 39.78H542.213V52H533.841ZM553.601 52L545.385 37.544L551.677 32.916L563.169 52H553.601ZM542.213 32.084H547.881C548.851 32.084 549.718 31.8933 550.481 31.512C551.243 31.1307 551.833 30.6107 552.249 29.952C552.699 29.2587 552.925 28.496 552.925 27.664C552.925 26.3813 552.439 25.324 551.469 24.492C550.533 23.66 549.285 23.244 547.725 23.244H542.213V32.084ZM567.864 52V15.6H582.164C584.799 15.6 587.139 16.12 589.184 17.16C591.229 18.1653 592.824 19.5867 593.968 21.424C595.147 23.2267 595.736 25.3067 595.736 27.664C595.736 30.0213 595.147 32.1187 593.968 33.956C592.789 35.7933 591.16 37.232 589.08 38.272C587.035 39.2773 584.677 39.78 582.008 39.78H576.236V52H567.864ZM587.624 52L579.408 37.544L585.7 32.916L597.192 52H587.624ZM576.236 32.084H581.904C582.875 32.084 583.741 31.8933 584.504 31.512C585.267 31.1307 585.856 30.6107 586.272 29.952C586.723 29.2587 586.948 28.496 586.948 27.664C586.948 26.3813 586.463 25.324 585.492 24.492C584.556 23.66 583.308 23.244 581.748 23.244H576.236V32.084ZM601.888 52V15.6H625.6V23.296H610.26V29.952H623.104V37.388H610.26V44.304H625.86V52H601.888ZM648.839 52.624C645.234 52.624 642.044 51.8267 639.271 50.232C636.532 48.6027 634.366 46.384 632.771 43.576C631.211 40.7333 630.431 37.4747 630.431 33.8C630.431 30.1253 631.211 26.884 632.771 24.076C634.366 21.2333 636.532 19.0147 639.271 17.42C642.044 15.7907 645.234 14.976 648.839 14.976C651.474 14.976 653.883 15.444 656.067 16.38C658.286 17.2813 660.192 18.564 661.787 20.228C663.416 21.892 664.664 23.816 665.531 26L657.679 28.652C657.159 27.4387 656.448 26.3813 655.547 25.48C654.68 24.5787 653.675 23.8853 652.531 23.4C651.422 22.9147 650.191 22.672 648.839 22.672C646.932 22.672 645.234 23.14 643.743 24.076C642.252 25.012 641.091 26.3293 640.259 28.028C639.427 29.692 639.011 31.616 639.011 33.8C639.011 35.984 639.427 37.9253 640.259 39.624C641.126 41.288 642.304 42.6053 643.795 43.576C645.32 44.512 647.054 44.98 648.995 44.98C650.416 44.98 651.682 44.72 652.791 44.2C653.9 43.68 654.854 42.952 655.651 42.016C656.483 41.08 657.194 40.0053 657.783 38.792L665.635 41.444C664.803 43.6627 663.572 45.6213 661.943 47.32C660.314 48.984 658.39 50.284 656.171 51.22C653.952 52.156 651.508 52.624 648.839 52.624ZM678.092 52V23.296H667.484V15.6H697.02V23.296H686.412V52H678.092Z" fill="white"/>
<g clip-path="url(#clip1_196_38)">
<line x1="26.2617" y1="56.5" x2="63.0009" y2="56.5" stroke="#ADFF00" stroke-width="3"/>
<line x1="31.9121" y1="56.5" x2="57.3469" y2="56.5" stroke="#FF4F28"/>
<path d="M39.6587 15H44.7989L57 50H52.0115L48.5018 39.5166H35.314L31.6683 50H27L39.6587 15ZM47.2098 35.6564L42.0345 20.1939L36.6561 35.6564H47.2098Z" fill="white"/>
<path d="M39.6587 15H44.7989L57 50H52.0115L48.5018 39.5166H35.314L31.6683 50H27L39.6587 15ZM47.2098 35.6564L42.0345 20.1939L36.6561 35.6564H47.2098Z" stroke="white"/>
<path d="M34.3571 39C27.75 36.3559 23.7857 33.0508 19.8214 29.7458C15.8571 33.0508 6.60714 38.339 6.60714 38.339L3.96429 34.3729C4.72788 33.8954 5.40874 33.4731 6.03276 33.0861C9.72832 30.794 11.4305 29.7383 16.5179 25.7797C15.1555 24.5125 8.58929 17.1864 7.92857 13.2203H13.2143C15.8571 19.1695 19.8214 22.4746 19.8214 22.4746C26.4286 17.1864 26.4286 9.91525 26.4286 9.91525H0V4.62712H15.8571V0H21.8036V4.62712H37V9.91525H31.7143C31.7143 9.91525 31.0536 18.5085 23.7857 25.7797C27.0893 29.0847 30.3929 31.7288 36.3393 34.3729L34.3571 39Z" fill="white"/>
<path d="M34.3571 39C27.75 36.3559 23.7857 33.0508 19.8214 29.7458C15.8571 33.0508 6.60714 38.339 6.60714 38.339L3.96429 34.3729C4.72788 33.8954 5.40874 33.4731 6.03276 33.0861C9.72832 30.794 11.4305 29.7383 16.5179 25.7797C15.1555 24.5125 8.58929 17.1864 7.92857 13.2203H13.2143C15.8571 19.1695 19.8214 22.4746 19.8214 22.4746C26.4286 17.1864 26.4286 9.91525 26.4286 9.91525H0V4.62712H15.8571V0H21.8036V4.62712H37V9.91525H31.7143C31.7143 9.91525 31.0536 18.5085 23.7857 25.7797C27.0893 29.0847 30.3929 31.7288 36.3393 34.3729L34.3571 39Z" stroke="white"/>
</g>
<path d="M84 5L84 58" stroke="white" stroke-width="3"/>
</g>
<defs>
<clipPath id="clip0_196_38">
<rect width="698" height="58" fill="white"/>
</clipPath>
<clipPath id="clip1_196_38">
<rect width="65" height="65" fill="white" transform="translate(-2 -6)"/>
</clipPath>
</defs>
</svg>
