<svg width="700" height="45" viewBox="0 0 700 45" fill="none" xmlns="http://www.w3.org/2000/svg">
<path d="M14.4828 44V4.838H0.574844V1.3H32.2948V4.838H18.3868V44H14.4828ZM39.0072 44V1.3H52.1222C54.8062 1.3 57.1852 1.849 59.2592 2.947C61.3332 4.00433 62.9396 5.48867 64.0782 7.4C65.2576 9.27067 65.8472 11.4463 65.8472 13.927C65.8472 16.367 65.1966 18.5427 63.8952 20.454C62.6346 22.3653 60.9062 23.87 58.7102 24.968C56.5142 26.0253 54.0539 26.554 51.3292 26.554H42.9112V44H39.0072ZM63.2852 44L52.9152 26.31L56.1482 24.419L67.5552 44H63.2852ZM42.9112 22.955H53.1592C54.7859 22.955 56.2499 22.5687 57.5512 21.796C58.8932 21.0233 59.9709 19.966 60.7842 18.624C61.5976 17.2413 62.0042 15.6757 62.0042 13.927C62.0042 11.243 61.0689 9.06733 59.1982 7.4C57.3682 5.692 55.0096 4.838 52.1222 4.838H42.9112V22.955ZM106.239 44L88.7932 1.3H92.8192L110.387 44H106.239ZM71.2252 44L88.7932 1.3H92.8192L75.3732 44H71.2252ZM79.5212 30.763V27.225H102.091V30.763H79.5212ZM117.104 44V1.3H121.008L148.214 37.717V1.3H152.118V44H148.214L121.008 7.522V44H117.104ZM177.702 44.732C175.303 44.732 173.188 44.488 171.358 44C169.569 43.4713 168.023 42.7597 166.722 41.865C165.421 40.9703 164.343 39.974 163.489 38.876C162.676 37.778 162.045 36.619 161.598 35.399L165.258 33.996C165.949 35.9073 167.312 37.595 169.345 39.059C171.378 40.4823 173.859 41.194 176.787 41.194C180.528 41.194 183.436 40.4823 185.51 39.059C187.584 37.595 188.621 35.6837 188.621 33.325C188.621 31.0477 187.665 29.238 185.754 27.896C183.843 26.5133 181.362 25.4357 178.312 24.663L173.981 23.565C172.11 23.077 170.362 22.3857 168.735 21.491C167.149 20.5557 165.868 19.3763 164.892 17.953C163.916 16.5297 163.428 14.781 163.428 12.707C163.428 8.88433 164.648 5.91566 167.088 3.801C169.528 1.64567 173.086 0.567999 177.763 0.567999C180.569 0.567999 182.989 1.056 185.022 2.032C187.055 2.96733 188.682 4.14666 189.902 5.57C191.163 6.95266 191.996 8.35567 192.403 9.779L188.804 11.182C187.909 8.94533 186.445 7.217 184.412 5.997C182.419 4.73633 180 4.106 177.153 4.106C174.144 4.106 171.744 4.838 169.955 6.302C168.206 7.766 167.332 9.73833 167.332 12.219C167.332 14.4557 168.023 16.1433 169.406 17.282C170.789 18.38 172.598 19.2137 174.835 19.783L179.166 20.82C183.477 21.8367 186.771 23.4633 189.048 25.7C191.366 27.896 192.525 30.2547 192.525 32.776C192.525 34.9313 191.976 36.924 190.878 38.754C189.78 40.5433 188.133 41.987 185.937 43.085C183.741 44.183 180.996 44.732 177.702 44.732ZM201.992 44V1.3H205.896V40.462H226.575V44H201.992ZM262.79 44L245.344 1.3H249.37L266.938 44H262.79ZM227.776 44L245.344 1.3H249.37L231.924 44H227.776ZM236.072 30.763V27.225H258.642V30.763H236.072ZM282.073 44V4.838H268.165V1.3H299.885V4.838H285.977V44H282.073ZM306.597 44V1.3H310.501V44H306.597ZM340.31 44.732C336.284 44.732 332.705 43.7967 329.574 41.926C326.483 40.0553 324.043 37.4527 322.254 34.118C320.505 30.7833 319.631 26.9607 319.631 22.65C319.631 18.2987 320.505 14.476 322.254 11.182C324.003 7.84733 326.402 5.24467 329.452 3.374C332.543 1.50333 336.101 0.567999 340.127 0.567999C344.153 0.567999 347.711 1.52367 350.802 3.435C353.893 5.30567 356.292 7.90833 358 11.243C359.749 14.537 360.623 18.3393 360.623 22.65C360.623 26.9607 359.749 30.7833 358 34.118C356.292 37.4527 353.913 40.0553 350.863 41.926C347.813 43.7967 344.295 44.732 340.31 44.732ZM340.31 41.194C343.523 41.194 346.349 40.401 348.789 38.815C351.27 37.229 353.201 35.0533 354.584 32.288C356.007 29.482 356.719 26.2693 356.719 22.65C356.719 19.0307 356.007 15.8383 354.584 13.073C353.161 10.267 351.209 8.071 348.728 6.485C346.247 4.899 343.38 4.106 340.127 4.106C336.914 4.106 334.047 4.899 331.526 6.485C329.045 8.071 327.093 10.267 325.67 13.073C324.247 15.8383 323.535 19.0307 323.535 22.65C323.535 26.2693 324.247 29.482 325.67 32.288C327.093 35.0533 329.066 37.229 331.587 38.815C334.149 40.401 337.057 41.194 340.31 41.194ZM369.801 44V1.3H373.705L400.911 37.717V1.3H404.815V44H400.911L373.705 7.522V44H369.801ZM434.364 44.732C430.135 44.732 426.394 43.7967 423.14 41.926C419.928 40.0147 417.386 37.412 415.515 34.118C413.685 30.7833 412.77 26.9607 412.77 22.65C412.77 18.3393 413.685 14.537 415.515 11.243C417.386 7.90833 419.928 5.30567 423.14 3.435C426.394 1.52367 430.135 0.567999 434.364 0.567999C437.455 0.567999 440.281 1.117 442.843 2.215C445.446 3.27233 447.683 4.777 449.553 6.729C451.465 8.681 452.929 10.938 453.945 13.5L444.734 16.611C444.124 15.1877 443.291 13.9473 442.233 12.89C441.217 11.8327 440.037 11.0193 438.695 10.45C437.394 9.88067 435.95 9.596 434.364 9.596C432.128 9.596 430.135 10.145 428.386 11.243C426.638 12.341 425.275 13.8863 424.299 15.879C423.323 17.831 422.835 20.088 422.835 22.65C422.835 25.212 423.323 27.4893 424.299 29.482C425.316 31.434 426.699 32.9793 428.447 34.118C430.237 35.216 432.27 35.765 434.547 35.765C436.215 35.765 437.699 35.46 439 34.85C440.302 34.24 441.42 33.386 442.355 32.288C443.331 31.19 444.165 29.9293 444.856 28.506L454.067 31.617C453.091 34.2197 451.648 36.5173 449.736 38.51C447.825 40.462 445.568 41.987 442.965 43.085C440.363 44.183 437.496 44.732 434.364 44.732ZM479.539 44.732C475.147 44.732 471.263 43.7967 467.888 41.926C464.512 40.0147 461.869 37.412 459.958 34.118C458.046 30.7833 457.091 26.981 457.091 22.711C457.091 18.4003 458.046 14.598 459.958 11.304C461.869 7.96933 464.492 5.36666 467.827 3.496C471.202 1.58466 475.065 0.628998 479.417 0.628998C483.768 0.628998 487.611 1.58466 490.946 3.496C494.321 5.36666 496.964 7.96933 498.876 11.304C500.787 14.598 501.743 18.4003 501.743 22.711C501.743 26.981 500.787 30.7833 498.876 34.118C497.005 37.412 494.402 40.0147 491.068 41.926C487.733 43.7967 483.89 44.732 479.539 44.732ZM479.539 35.704C481.938 35.704 484.053 35.155 485.883 34.057C487.713 32.959 489.136 31.434 490.153 29.482C491.169 27.4893 491.678 25.2323 491.678 22.711C491.678 20.149 491.149 17.892 490.092 15.94C489.034 13.9473 487.591 12.402 485.761 11.304C483.931 10.1653 481.816 9.596 479.417 9.596C477.017 9.596 474.903 10.1653 473.073 11.304C471.243 12.402 469.799 13.9473 468.742 15.94C467.684 17.892 467.156 20.149 467.156 22.711C467.156 25.2323 467.684 27.4893 468.742 29.482C469.799 31.434 471.263 32.959 473.134 34.057C475.004 35.155 477.139 35.704 479.539 35.704ZM507.72 44V1.3H524.495C527.586 1.3 530.331 1.91 532.73 3.13C535.13 4.30933 537 5.97667 538.342 8.132C539.725 10.2467 540.416 12.6867 540.416 15.452C540.416 18.2173 539.725 20.6777 538.342 22.833C536.96 24.9883 535.048 26.676 532.608 27.896C530.209 29.0753 527.444 29.665 524.312 29.665H517.541V44H507.72ZM530.9 44L521.262 27.042L528.643 21.613L542.124 44H530.9ZM517.541 20.637H524.19C525.329 20.637 526.346 20.4133 527.24 19.966C528.135 19.5187 528.826 18.9087 529.314 18.136C529.843 17.3227 530.107 16.428 530.107 15.452C530.107 13.9473 529.538 12.707 528.399 11.731C527.301 10.755 525.837 10.267 524.007 10.267H517.541V20.637ZM547.632 44V1.3H564.407C567.498 1.3 570.243 1.91 572.642 3.13C575.042 4.30933 576.912 5.97667 578.254 8.132C579.637 10.2467 580.328 12.6867 580.328 15.452C580.328 18.2173 579.637 20.6777 578.254 22.833C576.872 24.9883 574.96 26.676 572.52 27.896C570.121 29.0753 567.356 29.665 564.224 29.665H557.453V44H547.632ZM570.812 44L561.174 27.042L568.555 21.613L582.036 44H570.812ZM557.453 20.637H564.102C565.241 20.637 566.258 20.4133 567.152 19.966C568.047 19.5187 568.738 18.9087 569.226 18.136C569.755 17.3227 570.019 16.428 570.019 15.452C570.019 13.9473 569.45 12.707 568.311 11.731C567.213 10.755 565.749 10.267 563.919 10.267H557.453V20.637ZM587.544 44V1.3H615.36V10.328H597.365V18.136H612.432V26.859H597.365V34.972H615.665V44H587.544ZM642.622 44.732C638.393 44.732 634.652 43.7967 631.398 41.926C628.186 40.0147 625.644 37.412 623.773 34.118C621.943 30.7833 621.028 26.9607 621.028 22.65C621.028 18.3393 621.943 14.537 623.773 11.243C625.644 7.90833 628.186 5.30567 631.398 3.435C634.652 1.52367 638.393 0.567999 642.622 0.567999C645.713 0.567999 648.539 1.117 651.101 2.215C653.704 3.27233 655.941 4.777 657.811 6.729C659.723 8.681 661.187 10.938 662.203 13.5L652.992 16.611C652.382 15.1877 651.549 13.9473 650.491 12.89C649.475 11.8327 648.295 11.0193 646.953 10.45C645.652 9.88067 644.208 9.596 642.622 9.596C640.386 9.596 638.393 10.145 636.644 11.243C634.896 12.341 633.533 13.8863 632.557 15.879C631.581 17.831 631.093 20.088 631.093 22.65C631.093 25.212 631.581 27.4893 632.557 29.482C633.574 31.434 634.957 32.9793 636.705 34.118C638.495 35.216 640.528 35.765 642.805 35.765C644.473 35.765 645.957 35.46 647.258 34.85C648.56 34.24 649.678 33.386 650.613 32.288C651.589 31.19 652.423 29.9293 653.114 28.506L662.325 31.617C661.349 34.2197 659.906 36.5173 657.994 38.51C656.083 40.462 653.826 41.987 651.223 43.085C648.621 44.183 645.754 44.732 642.622 44.732ZM676.939 44V10.328H664.495V1.3H699.143V10.328H686.699V44H676.939Z" fill="black"/>
</svg>
